<svg xmlns="http://www.w3.org/2000/svg" width="3.6in" height="240" viewBox="0 0 259.2 180"><path fill="#004e9a" d="M47.7 16.9c12.9-2.5 21.9-.8 28.9 5.7s11.5 16.6 14.3 31.8c8.5 45.4-17.1 52.4-31.2 55.1l-28.5 5.6-.9-5c6.6-1.7 7.3-2.6 6.1-9.3L24.2 35c-1.3-6.8-2.2-7.3-9-6.4l-1-5.1zm6 82.2c.6 3.4 2 4.7 7.8 3.5 9.2-1.8 17.6-8.8 11-43.9-4.8-26.1-14.1-37.5-26.1-35.1-5.6 1.1-6.4 2-5.9 4.5z"/><path fill="#004e9a" d="M98.6 77.5c0 9.2 3 16.1 11.2 16.1 5 0 8.7-2.6 11.3-7.7l3.2 1.9c-3 7.8-8.7 12.8-18.9 12.8-16.2.1-21.1-10.9-21.1-22.8s5.6-22.6 21.3-22.6 19.3 10.9 19.3 18.4c0 2.8-1.5 3.9-4.7 3.9zm10-4.4c1.9 0 2.6-.5 2.6-2.9 0-4.3-1.1-10.8-5.8-10.8s-6.9 6.9-6.9 13.7z"/><path fill="#004e9a" d="M121.7 23.3l-3-.7v-3.9l17.9-2.9.6.5v32.4c4.2-4.1 8.2-7.4 13.5-7.4 7.6 0 15.9 6.7 15.9 25.9 0 24.6-10.2 29.6-22.5 29.6a22.4 22.4 0 0 1-12.8-3.5l-4.8 3.5-2.9-2V29c0-4.2-.6-5.4-1.9-5.7z"/><path fill="#004e9a" d="M181.7 86c0 3.6.7 3.9 6.1 4.2v3.4h-22.3v-3.4c4-.2 4.7-.6 4.7-4.2V60.2c0-3.5-.7-4.4-1.7-4.5l-2.5-.4V52l14.6-2.6.8 7.7c4.2-5.3 6.5-7.8 9.7-7.8s5.3 2.4 5.3 6.4-1.9 8-5.4 8c-1.5 0-2.4-1-3.3-1.9s-2.5-2.1-3.6-2.1-2.4 2.3-2.4 6.6z"/><path fill="#004e9a" d="M226.4 90.7c-.5 4.2.1 5.8 1.5 6.7a9.7 9.7 0 0 0 3.8 1l-.2 3.2a27.8 27.8 0 0 1-12.3 1.1c-4.1-.5-5.8-2.8-6.4-5.9-3.4 1.7-7.2 4.2-12.7 3.5-8.7-1.1-12.2-7.9-11.4-14.5.5-5 3.3-8.2 10.5-9.9 5.5-1.1 12.8-2.5 16.1-4.2l.5-4.4c.6-4.9-1.4-6.8-3.9-7.1s-5 .2-8.2 8c-1 2-2.3 3.4-4.1 3.1s-7.8-2.5-7.3-6.6c.6-5.7 8-10.2 21-8.6 15.3 2 16.1 9.4 15.4 14.9zm-11.7-14.5a55.2 55.2 0 0 0-7.7 2.7c-2.4 1.1-4 3.2-4.4 7.3s2.1 7.5 5.2 7.9 4.9-.6 5.4-5zM65.8 106.4c7.7 0 12.7 1.8 16 5.8s4.9 9.5 4.9 17.5c0 23.8-15.4 24.7-23.9 24.7h-17v-2.6c4.1-.3 4.5-.6 4.5-4.2v-34.4c0-3.5-.4-3.9-4.5-4.1v-2.7zm-5.3 42.1c0 1.8.7 2.6 4.1 2.6 5.5 0 11.1-2.7 11.1-21.1 0-13.6-4.2-20.3-11.3-20.3-3.4 0-3.9.3-3.9 1.7z"/><path fill="#004e9a" d="M123.9 111.1v2.9c-4 .4-4.2 1.3-5.7 5.2-3.4 8.5-7.9 21.6-12.1 32.9s-7.2 13.6-12.4 13.6c-2.7 0-5.9-1.7-5.9-4.7s2.4-6.3 4.9-6.3 1.9.5 3.3 1.6a4 4 0 0 0 2.6 1.1c1.4 0 2-.8 2.7-2.6s0-4.1-.5-5.6c-4.2-10.8-10.1-24.9-13.2-31.8-1.4-3.1-2-2.9-5-3.4v-2.9h20.6v2.9l-2.7.5c-1 .2-1.3.9-.8 2.4 2.2 6.8 5.6 14.4 7.9 20.4h.1c2.2-6.4 4.5-14 6.1-20.7.4-1.3 0-2-1-2.1l-3.5-.5v-2.9z"/><path fill="#004e9a" d="M158.6 134.9c.1 2.9.7 3.2 4.7 3.4v2.8l-19.5.4v-2.8c2-.3 3.5 0 3.5-3l-.4-19.2c-.1-4.2-2-6.3-5.5-6.3a5.7 5.7 0 0 0-5.4 3.5 12 12 0 0 0-.7 4.4l.3 17.5c.1 3 1.6 3 3.7 3.2v2.8l-19.6.4v-2.8c3.9-.3 4.6-.6 4.6-3.5l-.5-21.8c0-3-.6-3.7-1.7-3.8l-2.5-.3V107l14.6-2.5 1 5c4.8-2.9 8.1-5.2 12.2-5.3 7.4-.1 10.9 4.3 11.1 11.1z"/><path fill="#004e9a" d="M173 123.8c0 7.7 2.6 13.5 9.5 13.5 4.2 0 7.3-2.2 9.4-6.4l2.7 1.5c-2.5 6.6-7.3 10.8-15.8 10.8-13.6.1-17.8-9.2-17.8-19.1s4.8-19.1 17.9-19.1 16.2 9.2 16.2 15.5c0 2.4-1.2 3.3-3.9 3.3zm8.5-3.7c1.6 0 2.2-.4 2.2-2.5s-.9-9-4.9-9-5.8 5.8-5.8 11.5zm38.4-2.4c-.8-5.8-3.9-9.5-7.2-9.9a4.2 4.2 0 0 0-4.9 3.7c-.3 2.7 2.7 4.9 6.8 7 6.8 3.5 9.8 6.9 9.1 13-.8 8.2-7.6 11.6-16.4 10.6-3.9-.5-9.2-2-11.6-4.9l.2-11.3 2.9.3c1.2 6.4 4.6 12 9.2 12.5 3 .3 4.9-1.1 5.2-3.7s-3.2-5.6-6.5-7.4c-7.4-4-9.8-7.5-9.2-12.9.8-7.5 6.7-11.4 15.6-10.4a21.3 21.3 0 0 1 10.6 3.9l-1 9.9z"/><path fill="#e8b909" d="M112 147h8.5v2.2h-6v4.1h5.1v2.2h-5.1v6.1H112zm9.4 11.6c0-2.3 1.9-3.5 6.3-4-.1-1.2-.5-2.1-2-2.1a6 6 0 0 0-3 1l-.9-1.7a8.8 8.8 0 0 1 4.4-1.4c2.6 0 3.9 1.7 3.9 4.7v6.5h-2l-.2-1.2h-.1a5 5 0 0 1-3.3 1.4 3 3 0 0 1-3.1-3.2zm6.3 0v-2.4c-2.9.4-3.9 1.1-3.9 2.2a1.3 1.3 0 0 0 1.5 1.4 3.3 3.3 0 0 0 2.4-1.2zm5-7.9h2l.2 1.4h.1a4.6 4.6 0 0 1 3.2-1.7 2.7 2.7 0 0 1 2.9 1.9c1.1-1.1 2.1-1.9 3.5-1.9s3.2 1.6 3.2 4.3v6.9h-2.5v-6.5c0-1.8-.5-2.5-1.6-2.5a3.1 3.1 0 0 0-2.2 1.3v7.7H139v-6.5c0-1.8-.5-2.5-1.6-2.5a3.1 3.1 0 0 0-2.2 1.3v7.7h-2.5zm17.9-3.4a1.5 1.5 0 0 1 3 0 1.5 1.5 0 0 1-3 0zm.2 3.4h2.5v10.9h-2.5zm5.7 8.1v-12.9h2.5v13c0 .6.3.8.5.8h.4l.3 1.9-1.3.2c-1.8 0-2.4-1.2-2.4-3zm5.2 7l.4-2 .8.2c1.1 0 1.7-.8 2.1-1.9l.2-.7-4.2-10.7h2.5l1.9 5.3.9 3.1h.1c.2-1 .5-2.1.8-3.1l1.6-5.3h2.4l-3.9 11.3c-.8 2.5-1.9 4-4.3 4a2.7 2.7 0 0 1-1.3-.2zm13.7-18.8h2.5v5.9h5.7V147h2.5v14.6h-2.5v-6.5h-5.7v6.5h-2.5zm13.4 9.1c0-3.6 2.4-5.7 5-5.7s5 2.1 5 5.7-2.4 5.7-5 5.7-5-2.1-5-5.7zm7.5 0c0-2.2-1-3.6-2.5-3.6s-2.5 1.4-2.5 3.6.9 3.6 2.5 3.6 2.5-1.4 2.5-3.6zm4.9 1.4v-6.8h2.5v6.5c0 1.8.4 2.4 1.6 2.4s1.5-.4 2.3-1.5v-7.4h2.5v10.9h-2l-.2-1.6h-.1a4.2 4.2 0 0 1-3.4 1.8c-2.2 0-3.2-1.6-3.2-4.3zm11 2.8l1.2-1.6a4.7 4.7 0 0 0 2.9 1.2c1.1 0 1.7-.6 1.7-1.3s-1.2-1.3-2.3-1.8-2.9-1.3-2.9-3.1 1.5-3.3 3.9-3.3a5.7 5.7 0 0 1 3.5 1.3l-1.2 1.6a3.4 3.4 0 0 0-2.3-1c-1 0-1.6.5-1.6 1.2s1.1 1.2 2.2 1.6 3 1.3 3 3.3-1.4 3.4-4.1 3.4a6.4 6.4 0 0 1-4-1.5zm9.7-4.2c0-3.5 2.4-5.7 4.8-5.7s4.4 2.1 4.4 5.2a4.1 4.1 0 0 1-.1 1.2h-6.7a3 3 0 0 0 3.1 3 3.9 3.9 0 0 0 2.5-.8l.8 1.6a6.5 6.5 0 0 1-3.6 1.2c-2.9 0-5.2-2.1-5.2-5.7zm7.1-1c0-1.7-.8-2.7-2.2-2.7s-2.3.9-2.5 2.7z"/><path fill="#fff" d="M149.3 64.2s-1.9-8.1-7-6.6c-3.3.9-5.3 5.1-4.6 9 1.2 6 3.6 16.2 7 18.9 0 0 13.9-11.8 15.1-16.7s-1.5-13.1-10.5-4.6z"/><path fill="#e8b909" d="M145.8 66s-2.8-7.8-7.7-5.7c-3.1 1.4-4.7 5.8-3.5 9.5 1.9 5.9 5.4 15.7 9.1 17.9 0 0 12.5-13.4 13.1-18.4s-3-12.8-11-3.3z"/></svg>