<svg xmlns="http://www.w3.org/2000/svg" width="230.4" height="279" viewBox="0 0 230.4 279"><path fill="#00683f" d="M46.9 223c-.3-1.9-.8-2.3-3.5-2.3h-4.5v5.9h4.3c1.6 0 2.2-.3 2.2-1.5l2.6.6v5.9l-2.6.6c0-1.3-.6-1.6-2.2-1.6h-4.3v5.5c0 1.4.3 1.9 1.9 1.9l-.7 3.2H31l-.7-3.2c1.6 0 2-.5 2-1.9v-14.3c0-1.4-.4-1.9-2-1.9l.7-3.2h18.5v5.8zm28.6-1.2v11.4c0 5.1-4.2 8.4-11 8.4s-11-3.3-11-8.4v-11.4c0-1.4-.4-1.9-2-1.9l.7-3.2h9.4l.7 3.2c-1.6 0-2 .5-2 1.9v11.4c0 2.3 1.5 3.8 4.5 3.8s4.6-1.5 4.6-3.8v-11.4c0-1.4-.3-1.9-1.9-1.9l.7-3.2h8.6l.7 3.2c-1.6 0-2 .5-2 1.9zm23.4 1.5c-.2-1.7-.7-2.5-3.3-2.5h-2.4v15.3c0 1.4.3 1.9 1.9 1.9l-.7 3.2h-9l-.8-3.2c1.7 0 2-.5 2-1.9v-15.3h-2.4c-2.6 0-3.1.8-3.3 2.5l-2.7-.5.7-6.1h21.9l.8 6.1zm27.6-1.5v11.4c0 5.1-4.3 8.4-11 8.4s-11.1-3.3-11.1-8.4v-11.4c0-1.4-.3-1.9-1.9-1.9l.7-3.2h9.4l.6 3.2c-1.6 0-1.9.5-1.9 1.9v11.4c0 2.3 1.5 3.8 4.5 3.8s4.6-1.5 4.6-3.8v-11.4c0-1.4-.4-1.9-1.9-1.9l.7-3.2h8.5l.7 3.2c-1.5 0-1.9.5-1.9 1.9zm29 19.4h-7.3c-3.6-3.5-1-9.8-6-9.8h-2.9v4.7c0 1.4.3 1.9 1.9 1.9l-.7 3.2h-9.1l-.7-3.2c1.6 0 2-.5 2-1.9v-14.3c0-1.4-.4-1.9-2-1.9l.7-3.2h12.5c6 0 9.5 2.4 9.5 7 0 3-1.6 5.1-4.6 6.2 3 .9 3.8 3.7 4.1 5.4s.8 2.7 2.7 2.7h.6zm-12.6-20.8h-3.6v7.1h3.5c2.7 0 4.1-1.4 4.1-3.5s-1.3-3.6-4-3.6zm34.2 20.8h-19l-.7-3.2c1.6 0 1.9-.5 1.9-1.9v-14.3c0-1.4-.3-1.9-1.9-1.9l.7-3.2h18.2v5.8l-2.6.5c-.3-1.9-.8-2.3-3.5-2.3H166v5.9h3.8c1.6 0 2.2-.3 2.2-1.5l2.6.6v5.9l-2.6.6c0-1.3-.6-1.6-2.2-1.6H166v6.5h5.8c2.6 0 3-.7 3.4-2.5l2.6.5zm12.5.4a21.9 21.9 0 0 1-9.9-2.4l1.4-5.3h2.2c.9 2.8 3.7 3.8 6.2 3.8s4-.9 4-3-1.3-2.5-5.4-3.3-8.2-2.5-8.2-7.5 4.4-7.6 9.9-7.6a21.4 21.4 0 0 1 9.1 1.9l-1.4 5h-2.1a6 6 0 0 0-5.5-3.1c-2.2 0-3.8.9-3.8 2.6s1.4 2.3 4.4 2.8c5.4 1 9.4 2.6 9.4 8.1s-4.9 8-10.3 8zM37.7 262.3a1.6 1.6 0 0 0-.7-1.4 7.3 7.3 0 0 0-2.2-.8 9.2 9.2 0 0 1-2.5-.8 3.3 3.3 0 0 1-1.4-1.1 3 3 0 0 1-.5-1.6 3.5 3.5 0 0 1 1.3-2.6 5 5 0 0 1 3.3-1 4.8 4.8 0 0 1 3.4 1.1 3.5 3.5 0 0 1 1.3 2.7h-2.1a2.2 2.2 0 0 0-.8-1.5 2.8 2.8 0 0 0-1.8-.6 3 3 0 0 0-1.8.5 1.6 1.6 0 0 0-.7 1.3 1.4 1.4 0 0 0 .6 1.2 9.5 9.5 0 0 0 2.2.7 11.1 11.1 0 0 1 2.6.9 4 4 0 0 1 1.4 1.1 3.4 3.4 0 0 1 .5 1.7 3.2 3.2 0 0 1-1.3 2.7 6.3 6.3 0 0 1-3.5 1 5.8 5.8 0 0 1-2.6-.6 4.9 4.9 0 0 1-1.8-1.4 3.9 3.9 0 0 1-.6-2.1h2.1a2 2 0 0 0 .9 1.7 3.2 3.2 0 0 0 2 .6 4 4 0 0 0 2-.4 1.9 1.9 0 0 0 .7-1.3zm9.8 1.7a3.1 3.1 0 0 0 1.9-.6 2.7 2.7 0 0 0 1-1.8h2a4.2 4.2 0 0 1-.8 2.1 4.5 4.5 0 0 1-1.8 1.5 4.6 4.6 0 0 1-2.3.6 5.1 5.1 0 0 1-4-1.7 6.7 6.7 0 0 1-1.5-4.6v-.4a8.3 8.3 0 0 1 .6-3.2 5.5 5.5 0 0 1 1.9-2.1 5.7 5.7 0 0 1 6.4.4 4.8 4.8 0 0 1 1.5 3.2h-2a3.4 3.4 0 0 0-.9-1.9 3 3 0 0 0-2-.8 2.9 2.9 0 0 0-2.5 1.2 5.2 5.2 0 0 0-.9 3.3v.4a5.4 5.4 0 0 0 .9 3.3 2.8 2.8 0 0 0 2.5 1.1zm9.3-9.3a4.8 4.8 0 0 1 3.7-1.7c2.6 0 3.9 1.5 3.9 4.4v8.1h-2.1v-8.1a2.8 2.8 0 0 0-.6-2 2.5 2.5 0 0 0-1.9-.6 3.4 3.4 0 0 0-1.7.5 3.7 3.7 0 0 0-1.3 1.5v8.7h-2.1V248h2.1zm10.2 4.6a8.8 8.8 0 0 1 .7-3.3 5.4 5.4 0 0 1 2-2.2 4.9 4.9 0 0 1 2.9-.8 5.5 5.5 0 0 1 4.1 1.7 7 7 0 0 1 1.5 4.7 6.6 6.6 0 0 1-.7 3.2 5.4 5.4 0 0 1-1.9 2.3 6.1 6.1 0 0 1-3 .8 5 5 0 0 1-4-1.8 6.3 6.3 0 0 1-1.6-4.6zm2.1.2a5.4 5.4 0 0 0 1 3.3 3 3 0 0 0 2.5 1.2 3.1 3.1 0 0 0 2.6-1.2 6.1 6.1 0 0 0 .9-3.5 5.4 5.4 0 0 0-.9-3.3 3 3 0 0 0-2.6-1.3 2.9 2.9 0 0 0-2.5 1.3 5.8 5.8 0 0 0-1 3.5zm14.1 6h-2.1V248h2.1zm10.9 0a4.9 4.9 0 0 1-.3-1.3 4.3 4.3 0 0 1-3.5 1.6 4.4 4.4 0 0 1-3-1.1 3.5 3.5 0 0 1-1.1-2.6 3.6 3.6 0 0 1 1.4-3 7.3 7.3 0 0 1 4.2-1h2v-1a2.4 2.4 0 0 0-.7-1.8 2.5 2.5 0 0 0-1.9-.6 2.9 2.9 0 0 0-1.9.6 1.6 1.6 0 0 0-.8 1.3h-2.1a2.7 2.7 0 0 1 .7-1.8 4.2 4.2 0 0 1 1.8-1.3 6 6 0 0 1 2.4-.5 4.7 4.7 0 0 1 3.4 1.1 3.6 3.6 0 0 1 1.2 2.9v5.7a8.3 8.3 0 0 0 .4 2.6v.2zm-3.5-1.6a3.2 3.2 0 0 0 1.9-.5 3.3 3.3 0 0 0 1.3-1.3v-2.5h-1.6c-2.6 0-3.9.7-3.9 2.2a2.1 2.1 0 0 0 .6 1.6 3.4 3.4 0 0 0 1.7.5zm14.6-8.8h-1.1a2.7 2.7 0 0 0-2.8 1.8v8.7h-2.1v-12.4h2.1v1.4a3.3 3.3 0 0 1 2.9-1.6h1zm9.1 7.2a1.6 1.6 0 0 0-.7-1.4 7.3 7.3 0 0 0-2.2-.8 11.5 11.5 0 0 1-2.6-.8 3.6 3.6 0 0 1-1.3-1.1 3 3 0 0 1-.5-1.6 3.2 3.2 0 0 1 1.3-2.6 5.9 5.9 0 0 1 6.7.1 3.5 3.5 0 0 1 1.3 2.7h-2.2a2.1 2.1 0 0 0-.7-1.5 2.8 2.8 0 0 0-1.8-.6 3 3 0 0 0-1.8.5 1.6 1.6 0 0 0-.7 1.3 1.4 1.4 0 0 0 .6 1.2 8 8 0 0 0 2.2.7 13.1 13.1 0 0 1 2.6.9 4 4 0 0 1 1.4 1.1 3.4 3.4 0 0 1 .5 1.7 3.5 3.5 0 0 1-1.3 2.7 6.3 6.3 0 0 1-3.5 1 5.5 5.5 0 0 1-2.6-.6 4.9 4.9 0 0 1-1.8-1.4 3.9 3.9 0 0 1-.6-2.1h2.1a2.1 2.1 0 0 0 .8 1.7 3.7 3.7 0 0 0 2.1.6 3.4 3.4 0 0 0 1.9-.4 1.7 1.7 0 0 0 .8-1.3zm6.9-7.6a4.8 4.8 0 0 1 3.7-1.7c2.6 0 3.9 1.5 3.9 4.4v8.1h-2.1v-8.1a2.8 2.8 0 0 0-.6-2 2.5 2.5 0 0 0-1.9-.6 3.5 3.5 0 0 0-1.8.5 4.4 4.4 0 0 0-1.2 1.5v8.7h-2.1V248h2.1zm10.8-4.8a1.1 1.1 0 0 1 .3-.8 1.2 1.2 0 0 1 1.8 0 .9.9 0 0 1 .4.8 1 1 0 0 1-.4.9 1.2 1.2 0 0 1-2.1-.9zm2.3 15.6h-2.2v-12.3h2.2zm13.7-6a6.9 6.9 0 0 1-1.3 4.5 3.9 3.9 0 0 1-3.4 1.8 4.6 4.6 0 0 1-3.6-1.5v6h-2.1v-17.1h1.9v1.4a4.4 4.4 0 0 1 3.6-1.6 3.9 3.9 0 0 1 3.5 1.7 7 7 0 0 1 1.3 4.6zm-2.1-.2a5.4 5.4 0 0 0-.9-3.3 2.9 2.9 0 0 0-2.4-1.2 3.1 3.1 0 0 0-2.9 1.7v5.9a3.2 3.2 0 0 0 2.9 1.6 2.9 2.9 0 0 0 2.4-1.2 5.8 5.8 0 0 0 .9-3.5zm11.6 6.2v-10.7h-1.9v-1.6h1.9V252a4.2 4.2 0 0 1 1.1-3.1 4.1 4.1 0 0 1 3-1.1l1.4.2v1.7h-1.1a2 2 0 0 0-1.6.6 2.4 2.4 0 0 0-.6 1.7v1.3h2.6v1.6h-2.6v10.7zm14.7-1.2a4.6 4.6 0 0 1-3.6 1.5 3.5 3.5 0 0 1-3-1.2 4.8 4.8 0 0 1-1.1-3.4v-8h2.1v8c0 1.8.8 2.8 2.3 2.8a3.1 3.1 0 0 0 3.2-1.8v-9h2.1v12.3h-2zm7.2-11.1v1.6a4.3 4.3 0 0 1 3.7-1.8c2.6 0 3.9 1.5 3.9 4.4v8.1h-2v-8.1a2.8 2.8 0 0 0-.6-2 2.5 2.5 0 0 0-1.9-.6 3.5 3.5 0 0 0-1.8.5 4.4 4.4 0 0 0-1.2 1.5v8.7h-2.1v-12.3zm10.4 6.1a7.4 7.4 0 0 1 1.3-4.6 4.6 4.6 0 0 1 7-.2V248h2.1v17.5h-2v-1.3a4.3 4.3 0 0 1-3.5 1.6 4.2 4.2 0 0 1-3.5-1.8 7.4 7.4 0 0 1-1.3-4.6zm2.1.2a6.2 6.2 0 0 0 .8 3.3 2.9 2.9 0 0 0 2.4 1.2 3.2 3.2 0 0 0 3-1.8v-5.7a3.2 3.2 0 0 0-2.9-1.7 2.9 2.9 0 0 0-2.5 1.2 6.5 6.5 0 0 0-.8 3.5zM45.8 208.6H31.4l-.8-3.8c1.9 0 2.3-.7 2.3-2.3v-17.1c0-1.7-.4-2.2-2.3-2.2l.8-3.9h13.5c7.2 0 11.3 2.6 11.3 7.8 0 2.3-1.9 4.7-4.1 5.8a7.5 7.5 0 0 1 5.5 7.3c0 5.5-4.6 8.4-11.8 8.4zm-5-17.6h3.5c2.9 0 4.3-1.5 4.3-3.6s-1.2-3.4-4.2-3.4h-3.6zm0 4.7v8.4H45c3.2 0 4.8-1.6 4.8-4.2s-1.7-4.2-5-4.2zm49.3 12.9h-8.7c-4.3-4.1-1.2-11.7-7.2-11.7h-3.5v5.6c0 1.6.4 2.3 2.3 2.3l-.8 3.8H61.3l-.8-3.8c1.9 0 2.3-.7 2.3-2.3v-17.1c0-1.6-.4-2.2-2.3-2.2l.8-3.9h14.9c7.2 0 11.4 2.9 11.4 8.4 0 3.6-1.9 6.1-5.6 7.4 3.7 1 4.6 4.4 5 6.5s1 3.2 3.2 3.2h.7zm-15-24.8h-4.4v8.4h4.2c3.2 0 4.9-1.6 4.9-4.2s-1.6-4.2-4.7-4.2zm29.4 24.8h-11l-.8-3.8c1.9 0 2.3-.7 2.3-2.3v-17.1c0-1.7-.4-2.2-2.3-2.2l.8-3.9h11l.8 3.9c-1.9 0-2.4.5-2.4 2.2v17.1c0 1.6.5 2.3 2.4 2.3zm33.8-11.5c-2 0-2.4.6-2.4 2.1v2.3c0 1.5.3 1.9 1.3 1.9l-.7 3.7c-4.2.3-5.2 2-11.6 2-8.6 0-15.9-4.2-15.9-15.1s6.5-15.2 15.9-15.2a22 22 0 0 1 11.3 3.2l-1.6 6.6H132c-.8-3.1-3.4-4.4-6.5-4.4-5.3 0-8.2 3.1-8.2 9.8s2.5 9.7 7.8 9.7a11.2 11.2 0 0 0 3.8-.8v-3.7c0-1.5-.4-2.1-2.5-2.1h-.5l.8-3.9h11.4l.8 3.9zm33.5 11.5H161l-.9-3.8c2 0 2.4-.7 2.4-2.3V196h-11.1v6.5c0 1.6.4 2.3 2.3 2.3l-.8 3.8H142l-.8-3.8c1.9 0 2.3-.7 2.3-2.3v-17.1c0-1.7-.4-2.2-2.3-2.2l.8-3.9h10.9l.8 3.9c-1.9 0-2.3.5-2.3 2.2v5.3h11.1v-5.3c0-1.7-.4-2.2-2.4-2.2l.9-3.9h10.8l.9 3.9c-1.9 0-2.3.5-2.3 2.2v17.1c0 1.6.4 2.3 2.3 2.3zm27.1-21.4c-.3-2-.9-3-4-3h-2.8v18.3c0 1.6.4 2.3 2.3 2.3l-.8 3.8h-10.9l-.9-3.8c2 0 2.4-.7 2.4-2.3v-18.3h-2.9c-3.1 0-3.6 1-4 3l-3.1-.6.8-7.3h26.2l.9 7.3z"/><path fill="none" stroke="#00683f" stroke-miterlimit="10" stroke-width="2" d="M130.6 170.9l70.7-.5.5-93.8L114 9.8 30.6 77s-1 91.1 0 93.2l87.4 1.1"/><path fill="#00683f" stroke="#00683f" stroke-miterlimit="10" stroke-width="1.34" d="M87.1 37.8C83.6 46.1 76.6 58.3 66 57.5a.4.4 0 0 1 0-.6c2.9-1.1 10.4-5.3 19.8-20 .7-1 1.8-.2 1.3.9z"/><path fill="#00683f" stroke="#00683f" stroke-miterlimit="10" stroke-width=".99" d="M92 14c.8 2.5 1.6 17.2-7.2 22.4 0 0 5.3-14.8 6.4-22.3 0-.5.6-.5.8-.1z"/><path fill="#94c948" stroke="#94c948" stroke-miterlimit="10" stroke-width="1.89" d="M34.6 8.2a.7.7 0 0 0-.8 1.2c3 3.5 7.9 9.7 10.8 15.4 0 0 11.8 24.9 40.3 13.6a.8.8 0 0 0 .5-.7c0-3.3-1-20.9-15-23l-17.9-2.8c-.2 0-10.6-.7-17.9-3.7z"/><path fill="#94c948" stroke="#94c948" stroke-miterlimit="10" stroke-width="2.99" d="M140.5 17a1 1 0 0 0-.5-1.9c-4.5.1-11.5 0-17-1.3 0 0-25.1-6.6-35.8 23.8a1.1 1.1 0 0 0 .3 1.1c2.7 2.4 15.5 12.5 25.9 2.7L127 28.6h.1A72.2 72.2 0 0 1 140.5 17z"/><path fill="#00683f" stroke="#00683f" stroke-linecap="round" stroke-linejoin="round" stroke-width="1.65" d="M120.5 171.3s-27.6-34.1-32.8-67.1-.1-70.9-1.3-64.7a171.7 171.7 0 0 0-2.3 69.2c6.7 37 27.5 53.2 31.5 65.8z"/><path fill="#00683f" stroke="#00683f" stroke-linecap="round" stroke-linejoin="round" stroke-width=".75" d="M49.3 18.4s31.3 7.1 29.4 17.5c0 0-4.8-9.9-29.4-17.5z"/><path fill="#00683f" stroke="#00683f" stroke-linecap="round" stroke-linejoin="round" stroke-width=".68" d="M123.5 20.3S96.4 25 95.9 37.4c0 0 5.1-11.9 27.6-17.1z"/></svg>