<svg id="Layer_1" data-name="Layer 1" xmlns="http://www.w3.org/2000/svg" width="315.4" height="182.9" viewBox="0 0 315.4 182.9"><title>future</title><path d="M108.9,105.6c-.3-1.9-.8-2.4-3.6-2.4h-4.7v6.1h4.5c1.7,0,2.2-.2,2.2-1.6l2.7.7v6l-2.7.7c0-1.3-.5-1.6-2.2-1.6h-4.5v5.6c0,1.4.4,1.9,2,1.9l-.7,3.3H92.6l-.8-3.3c1.7,0,2-.5,2-1.9V104.3c0-1.4-.3-1.9-2-1.9l.8-3.3h19v6Z" fill="#94c948"/><path d="M138.4,104.3v11.8c0,5.3-4.4,8.7-11.4,8.7s-11.3-3.4-11.3-8.7V104.3c0-1.4-.4-1.9-2.1-1.9l.8-3.3H124l.7,3.3c-1.6,0-2,.5-2,1.9v11.8c0,2.3,1.5,3.9,4.6,3.9s4.8-1.6,4.8-3.9V104.3c0-1.4-.4-1.9-2-1.9l.7-3.3h8.8l.8,3.3C138.7,102.4,138.4,102.9,138.4,104.3Z" fill="#94c948"/><path d="M162.5,105.9c-.3-1.7-.8-2.5-3.5-2.5h-2.4v15.7c0,1.4.3,1.9,1.9,1.9l-.7,3.3h-9.3l-.7-3.3c1.6,0,2-.5,2-1.9V103.4h-2.5c-2.7,0-3.2.8-3.4,2.5l-2.7-.5.6-6.3h22.6l.8,6.3Z" fill="#94c948"/><path d="M190.8,104.3v11.8c0,5.3-4.3,8.7-11.3,8.7s-11.4-3.4-11.4-8.7V104.3c0-1.4-.3-1.9-2-1.9l.8-3.3h9.6l.7,3.3c-1.6,0-2,.5-2,1.9v11.8c0,2.3,1.5,3.9,4.6,3.9s4.8-1.6,4.8-3.9V104.3c0-1.4-.4-1.9-2-1.9l.7-3.3h8.8l.8,3.3C191.2,102.4,190.8,102.9,190.8,104.3Z" fill="#94c948"/><path d="M220.7,124.3h-7.5c-3.7-3.5-1-10-6.2-10h-3v4.8c0,1.4.3,1.9,2,1.9l-.7,3.3h-9.4l-.7-3.3c1.7,0,2-.5,2-1.9V104.3c0-1.4-.4-1.9-2-1.9l.7-3.3h12.8c6.2,0,9.9,2.5,9.9,7.2,0,3.1-1.7,5.3-4.8,6.4,3.1.9,3.9,3.8,4.3,5.6s.8,2.7,2.7,2.7h.6Zm-12.9-21.4H204v7.3h3.7c2.7,0,4.1-1.4,4.1-3.6S210.5,102.9,207.8,102.9Z" fill="#94c948"/><path d="M243,124.3H223.4l-.7-3.3c1.6,0,2-.5,2-1.9V104.3c0-1.4-.4-1.9-2-1.9l.7-3.3h18.7v6l-2.6.5c-.3-1.9-.9-2.4-3.7-2.4h-4.3v6.1h3.9c1.7,0,2.3-.2,2.3-1.6l2.7.7v6l-2.7.7c0-1.3-.6-1.6-2.3-1.6h-3.9v6.6h6c2.6,0,3.1-.7,3.4-2.5l2.8.5Z" fill="#94c948"/><path d="M255.8,124.8a21,21,0,0,1-10.1-2.5l1.4-5.5h2.3c.9,2.9,3.7,4,6.3,4s4.1-1,4.1-3.1-1.3-2.7-5.5-3.4-8.4-2.7-8.4-7.8,4.4-7.8,10.1-7.8a22.9,22.9,0,0,1,9.3,1.9l-1.3,5.2h-2.3c-1-2.4-3.6-3.2-5.6-3.2s-3.9,1-3.9,2.7,1.5,2.4,4.5,2.9c5.6,1,9.7,2.7,9.7,8.3S261.4,124.8,255.8,124.8Z" fill="#94c948"/><path d="M99,145.9a1.2,1.2,0,0,0-.7-1.1,5.7,5.7,0,0,0-2-.7,12.3,12.3,0,0,1-2.5-.8,3.3,3.3,0,0,1-2.1-3,3.3,3.3,0,0,1,1.4-2.7,5.1,5.1,0,0,1,3.5-1.1,6.2,6.2,0,0,1,3.7,1.1,3.7,3.7,0,0,1,1.4,2.9H98.8a1.6,1.6,0,0,0-.6-1.3,2.1,2.1,0,0,0-1.6-.6,3.3,3.3,0,0,0-1.5.4,1.4,1.4,0,0,0-.6,1.2,1.2,1.2,0,0,0,.5,1,7.2,7.2,0,0,0,2.3.8,11.5,11.5,0,0,1,2.6.8,4.4,4.4,0,0,1,1.4,1.3,2.9,2.9,0,0,1,.5,1.7,3.3,3.3,0,0,1-1.5,2.8,5.8,5.8,0,0,1-3.7,1,7.6,7.6,0,0,1-2.7-.5,3.8,3.8,0,0,1-1.9-1.6,3.1,3.1,0,0,1-.7-2.1H94a1.9,1.9,0,0,0,.8,1.5,3.5,3.5,0,0,0,3.6.2A1.4,1.4,0,0,0,99,145.9Z" fill="#00683f"/><path d="M109.4,147.4a2.5,2.5,0,0,0,1.8-.7,2.2,2.2,0,0,0,.8-1.5h2.7a4.5,4.5,0,0,1-.8,2.2A4.3,4.3,0,0,1,112,149a5.8,5.8,0,0,1-6.7-1.1,6.5,6.5,0,0,1-1.6-4.8v-.2a6.5,6.5,0,0,1,1.6-4.7,5.4,5.4,0,0,1,4.2-1.7,5.2,5.2,0,0,1,3.7,1.3,5.1,5.1,0,0,1,1.5,3.5H112a2.5,2.5,0,0,0-.8-1.8,2.1,2.1,0,0,0-1.8-.7,2.4,2.4,0,0,0-2.1,1,4.7,4.7,0,0,0-.7,3v.5a4.9,4.9,0,0,0,.7,3A2.5,2.5,0,0,0,109.4,147.4Z" fill="#00683f"/><path d="M119.6,138.1a4.3,4.3,0,0,1,3.5-1.6c2.7,0,4.1,1.5,4.2,4.6v8.3h-2.9v-8.2a2.2,2.2,0,0,0-.6-1.8,2,2,0,0,0-1.6-.6,2.8,2.8,0,0,0-2.6,1.5v9.1h-2.8v-18h2.8Z" fill="#00683f"/><path d="M129.6,142.9a7.2,7.2,0,0,1,.7-3.3,5.2,5.2,0,0,1,2.1-2.3,6.2,6.2,0,0,1,7.2.8,6.5,6.5,0,0,1,1.8,4.4v.7a8.8,8.8,0,0,1-.7,3.3,5.2,5.2,0,0,1-2.1,2.3,5.3,5.3,0,0,1-3.1.8,5.5,5.5,0,0,1-4.3-1.8,6.5,6.5,0,0,1-1.6-4.7Zm2.8.3a4.5,4.5,0,0,0,.9,3,2.6,2.6,0,0,0,4.4,0,5,5,0,0,0,.8-3.3,4.6,4.6,0,0,0-.8-3,2.4,2.4,0,0,0-2.2-1.1,2.3,2.3,0,0,0-2.2,1.1A5,5,0,0,0,132.4,143.2Z" fill="#00683f"/><path d="M146.8,149.4H144v-18h2.8Z" fill="#00683f"/><path d="M157.5,149.4a6.8,6.8,0,0,1-.3-1.2,4.9,4.9,0,0,1-6.5.3,3.4,3.4,0,0,1-1.2-2.7,3.7,3.7,0,0,1,1.5-3.1,7.6,7.6,0,0,1,4.3-1.1h1.8v-.8a2.3,2.3,0,0,0-.6-1.6,2.1,2.1,0,0,0-1.7-.6,2.5,2.5,0,0,0-1.5.5,1.6,1.6,0,0,0-.7,1.3h-2.8a3.1,3.1,0,0,1,.7-2,4,4,0,0,1,1.9-1.4,5.5,5.5,0,0,1,2.6-.5,5.7,5.7,0,0,1,3.6,1.1,4.1,4.1,0,0,1,1.3,3.1v5.8a6.8,6.8,0,0,0,.5,2.7v.2Zm-3.1-2.1a3.2,3.2,0,0,0,1.6-.4,2.3,2.3,0,0,0,1.1-1.1v-2.4h-1.6a3.7,3.7,0,0,0-2.3.6,1.7,1.7,0,0,0-.8,1.5,1.7,1.7,0,0,0,.5,1.4A2.4,2.4,0,0,0,154.4,147.3Z" fill="#00683f"/><path d="M169.5,139.3h-1.1a2.7,2.7,0,0,0-2.7,1.5v8.7h-2.8V136.7h2.7v1.4a3.1,3.1,0,0,1,2.8-1.6h1.1Z" fill="#00683f"/><path d="M178.4,145.9a1.3,1.3,0,0,0-.6-1.1,5.6,5.6,0,0,0-2.1-.7l-2.4-.8a3.3,3.3,0,0,1-2.1-3,3.1,3.1,0,0,1,1.4-2.7,5.1,5.1,0,0,1,3.5-1.1,6.2,6.2,0,0,1,3.7,1.1,3.7,3.7,0,0,1,1.4,2.9h-2.9a1.6,1.6,0,0,0-.6-1.3,2.1,2.1,0,0,0-1.6-.6,3,3,0,0,0-1.5.4,1.4,1.4,0,0,0-.6,1.2,1,1,0,0,0,.5,1,7.3,7.3,0,0,0,2.2.8,11,11,0,0,1,2.7.8,4.4,4.4,0,0,1,1.4,1.3,2.9,2.9,0,0,1,.5,1.7,3.3,3.3,0,0,1-1.5,2.8,6,6,0,0,1-3.7,1,8.7,8.7,0,0,1-2.8-.5,4.9,4.9,0,0,1-1.9-1.6,3.7,3.7,0,0,1-.6-2.1h2.7a1.9,1.9,0,0,0,.8,1.5,3.5,3.5,0,0,0,3.6.2A1.3,1.3,0,0,0,178.4,145.9Z" fill="#00683f"/><path d="M186.5,138.1a4.5,4.5,0,0,1,3.6-1.6c2.7,0,4,1.5,4.1,4.6v8.3h-2.9v-8.2a2.6,2.6,0,0,0-.5-1.8,2.4,2.4,0,0,0-1.7-.6,2.8,2.8,0,0,0-2.6,1.5v9.1h-2.8v-18h2.8Z" fill="#00683f"/><path d="M197.1,133.4a1.5,1.5,0,0,1,.4-1.1,1.5,1.5,0,0,1,1.2-.4,1.6,1.6,0,0,1,1.2.4,1.7,1.7,0,0,1,0,2.2,1.6,1.6,0,0,1-1.2.4,1.5,1.5,0,0,1-1.2-.4A1.5,1.5,0,0,1,197.1,133.4Zm3,16h-2.9V136.7h2.9Z" fill="#00683f"/><path d="M214.3,143.2a7.7,7.7,0,0,1-1.4,4.7,4.1,4.1,0,0,1-3.5,1.7,4.5,4.5,0,0,1-3.4-1.3v6h-2.8V136.7h2.6V138a4.3,4.3,0,0,1,3.4-1.5,4.5,4.5,0,0,1,3.7,1.7,8.5,8.5,0,0,1,1.3,4.8Zm-2.9-.3a5.6,5.6,0,0,0-.7-3,2.5,2.5,0,0,0-2.2-1.1,2.6,2.6,0,0,0-2.5,1.5v5.6a2.7,2.7,0,0,0,2.6,1.5,2.5,2.5,0,0,0,2.1-1.1A6.4,6.4,0,0,0,211.4,142.9Z" fill="#00683f"/><path d="M223.7,149.4V138.8h-2v-2.1h2v-1.1a4.7,4.7,0,0,1,1.1-3.3,4.5,4.5,0,0,1,3.3-1.2,4.5,4.5,0,0,1,1.6.3v2.2h-1a1.9,1.9,0,0,0-2.1,2.1v1.1h2.6v2.1h-2.6v10.6Z" fill="#00683f"/><path d="M238.9,148.1a4.6,4.6,0,0,1-3.6,1.5,3.9,3.9,0,0,1-3.1-1.2,5.1,5.1,0,0,1-1.1-3.5v-8.2H234v8.2c0,1.6.6,2.4,2,2.4a2.9,2.9,0,0,0,2.8-1.5v-9.1h2.8v12.7h-2.7Z" fill="#00683f"/><path d="M247.2,136.7v1.5a4.5,4.5,0,0,1,3.7-1.7c2.7,0,4,1.5,4.1,4.5v8.4h-2.9v-8.2a3,3,0,0,0-.5-1.8,2.2,2.2,0,0,0-1.7-.6,2.7,2.7,0,0,0-2.6,1.6v9h-2.8V136.7Z" fill="#00683f"/><path d="M257.3,143a7.3,7.3,0,0,1,1.4-4.7,4.3,4.3,0,0,1,3.6-1.8,3.9,3.9,0,0,1,3.3,1.4v-6.5h2.8v18h-2.5l-.2-1.3a4.2,4.2,0,0,1-3.4,1.5,4.3,4.3,0,0,1-3.6-1.8A7.8,7.8,0,0,1,257.3,143Zm2.9.2a5.1,5.1,0,0,0,.7,3,2.5,2.5,0,0,0,2.1,1.1,2.6,2.6,0,0,0,2.6-1.6v-5.4a2.6,2.6,0,0,0-2.5-1.5,2.5,2.5,0,0,0-2.2,1.1A5.8,5.8,0,0,0,260.2,143.2Z" fill="#00683f"/><path d="M107.8,90.8H93l-.9-4c2,0,2.4-.6,2.4-2.3V66.9c0-1.7-.4-2.3-2.4-2.3l.9-4h13.8c7.5,0,11.7,2.7,11.7,8a7.1,7.1,0,0,1-4.3,6,7.7,7.7,0,0,1,5.7,7.5C119.9,87.8,115.2,90.8,107.8,90.8Zm-5.2-18.2h3.7c3,0,4.3-1.4,4.3-3.7s-1.2-3.5-4.3-3.5h-3.7Zm0,4.9v8.7H107c3.2,0,4.9-1.7,4.9-4.4s-1.8-4.3-5.2-4.3Z" fill="#94c948"/><path d="M153.4,90.8h-9c-4.4-4.3-1.2-12.1-7.4-12.1h-3.6v5.8c0,1.7.4,2.3,2.4,2.3l-.9,4H123.8l-.9-4c2,0,2.4-.6,2.4-2.3V66.9c0-1.7-.5-2.3-2.4-2.3l.9-4H139c7.4,0,11.8,3.1,11.8,8.7,0,3.7-2,6.2-5.7,7.6,3.7,1.1,4.7,4.5,5.1,6.6s1,3.3,3.3,3.3h.7ZM137.9,65.2h-4.5v8.7h4.4c3.3,0,5-1.7,5-4.3S141.2,65.2,137.9,65.2Z" fill="#94c948"/><path d="M168.2,90.8H156.9l-.8-4c1.9,0,2.4-.6,2.4-2.3V66.9c0-1.7-.5-2.3-2.4-2.3l.8-4h11.3l.8,4c-2,0-2.4.6-2.4,2.3V84.5c0,1.7.4,2.3,2.4,2.3Z" fill="#94c948"/><path d="M203,78.9c-2,0-2.5.6-2.5,2.2v2.4c0,1.6.4,2,1.4,2l-.8,3.7c-4.3.3-5.3,2.1-11.9,2.1-8.9,0-16.4-4.3-16.4-15.6s6.7-15.6,16.4-15.6a23.3,23.3,0,0,1,11.7,3.3l-1.7,6.8h-2.7c-.9-3.2-3.5-4.5-6.6-4.5-5.6,0-8.5,3.1-8.5,10.1s2.5,10,8,10a9.3,9.3,0,0,0,3.9-.9V81.1c0-1.6-.4-2.2-2.5-2.2h-.5l.8-4h11.6l.9,4Z" fill="#94c948"/><path d="M237.5,90.8H226.4l-.9-4c2,0,2.4-.6,2.4-2.3V77.8H216.5v6.7c0,1.7.4,2.3,2.3,2.3l-.8,4H206.8l-.9-4c2,0,2.4-.6,2.4-2.3V66.9c0-1.7-.4-2.3-2.4-2.3l.9-4H218l.8,4c-1.9,0-2.3.6-2.3,2.3v5.4h11.4V66.9c0-1.7-.4-2.3-2.4-2.3l.9-4h11.1l.9,4c-2,0-2.4.6-2.4,2.3V84.5c0,1.7.4,2.3,2.4,2.3Z" fill="#94c948"/><path d="M265.4,68.8c-.3-2.1-.9-3.1-4.1-3.1h-2.9V84.5c0,1.7.4,2.3,2.3,2.3l-.8,4H248.7l-.9-4c2,0,2.4-.6,2.4-2.3V65.7h-2.9c-3.2,0-3.8,1-4.1,3.1l-3.3-.7.9-7.5h27l.9,7.5Z" fill="#94c948"/><path d="M120.6,50.2,72.8.7,8.4,69.4s-.7,92.9,0,95.1l67.5,1.1" fill="none" stroke="#00683f" stroke-miterlimit="10"/><polyline points="77.1 165.5 140.1 164.7 139.9 158.5" fill="none" stroke="#00683f" stroke-miterlimit="10"/><path d="M55,44c-3.6,8.3-10.6,20.7-21.3,19.9a.3.3,0,0,1,0-.6c2.8-1.1,10.4-5.3,20-20.2C54.3,42.1,55.4,42.9,55,44Z" fill="#00683f" stroke="#00683f" stroke-miterlimit="10" stroke-width="1.36"/><path d="M59.9,20c.9,2.5,1.6,17.4-7.2,22.6,0,0,5.2-14.9,6.4-22.5C59.1,19.6,59.7,19.5,59.9,20Z" fill="#00683f" stroke="#00683f" stroke-miterlimit="10" stroke-width="1"/><path d="M1.9,14.1a.7.7,0,0,0-.8,1.2c3.1,3.5,8.1,9.8,11,15.6,0,0,11.9,25.1,40.7,13.7a.8.8,0,0,0,.5-.7c-.1-3.4-1.1-21.1-15.2-23.2,0,0,2.1.2-18.1-2.8h0C19.8,17.8,9.3,17.1,1.9,14.1Z" fill="#94c948" stroke="#94c948" stroke-miterlimit="10" stroke-width="1.91"/><path d="M108.9,23a1,1,0,0,0-.5-1.9c-4.6.1-11.6,0-17.1-1.3,0,0-25.5-6.7-36.2,24a1.3,1.3,0,0,0,.3,1.2c2.7,2.4,15.6,12.5,26.1,2.6,0,0-1.5,1.5,13.8-12.8h0C95.6,34.4,102.2,27.2,108.9,23Z" fill="#94c948" stroke="#94c948" stroke-miterlimit="10" stroke-width="3.02"/><path d="M88.7,178.8s-27.9-34.4-33.1-67.7-.1-71.6-1.3-65.4a171.9,171.9,0,0,0-2.4,69.9c6.8,37.4,27.8,53.7,31.9,66.5Z" fill="#00683f" stroke="#00683f" stroke-linecap="round" stroke-linejoin="round" stroke-width="1.67"/><path d="M16.8,24.4s31.6,7.2,29.7,17.7C46.5,42.1,41.6,32.1,16.8,24.4Z" fill="#00683f" stroke="#00683f" stroke-linecap="round" stroke-linejoin="round" stroke-width="0.76"/><path d="M91.7,26.3S64.4,31.1,63.8,43.6C63.8,43.6,69,31.6,91.7,26.3Z" fill="#00683f" stroke="#00683f" stroke-linecap="round" stroke-linejoin="round" stroke-width="0.69"/></svg>