<svg id="Layer_1" data-name="Layer 1" xmlns="http://www.w3.org/2000/svg" width="327.6" height="190" viewBox="0 0 327.6 190"><title>future-1</title><path d="M124,113.8c-.3-2-.8-2.4-3.6-2.4h-4.7v6.1h4.5c1.6,0,2.2-.3,2.2-1.6l2.7.6v6.1l-2.7.7c0-1.4-.6-1.7-2.2-1.7h-4.5v5.6c0,1.4.4,2,2,2l-.7,3.3h-9.3l-.8-3.3c1.7,0,2-.6,2-2V112.5c0-1.5-.3-1.9-2-1.9l.8-3.4h18.9v6.1Z" fill="#00683f"/><path d="M153.5,112.5v11.7c0,5.3-4.4,8.7-11.4,8.7s-11.4-3.4-11.4-8.7V112.5c0-1.5-.3-1.9-2-1.9l.8-3.4h9.6l.7,3.4c-1.6,0-2,.4-2,1.9v11.7c0,2.4,1.5,3.9,4.6,3.9s4.8-1.5,4.8-3.9V112.5c0-1.5-.4-1.9-2-1.9l.7-3.4h8.8l.8,3.4C153.8,110.6,153.5,111,153.5,112.5Z" fill="#00683f"/><path d="M177.6,114c-.3-1.7-.8-2.5-3.5-2.5h-2.4v15.7c0,1.4.3,2,1.9,2l-.7,3.3h-9.3l-.8-3.3c1.7,0,2.1-.6,2.1-2V111.5h-2.5c-2.7,0-3.2.8-3.4,2.5l-2.8-.5.7-6.3h22.6l.8,6.3Z" fill="#00683f"/><path d="M205.9,112.5v11.7c0,5.3-4.3,8.7-11.3,8.7s-11.4-3.4-11.4-8.7V112.5c0-1.5-.3-1.9-2-1.9l.8-3.4h9.6l.7,3.4c-1.7,0-2,.4-2,1.9v11.7c0,2.4,1.5,3.9,4.6,3.9s4.8-1.5,4.8-3.9V112.5c0-1.5-.4-1.9-2-1.9l.7-3.4h8.8l.7,3.4C206.3,110.6,205.9,111,205.9,112.5Z" fill="#00683f"/><path d="M235.8,132.5h-7.5c-3.7-3.6-1-10.1-6.2-10.1h-3v4.8c0,1.4.3,2,2,2l-.7,3.3H211l-.7-3.3c1.7,0,2-.6,2-2V112.5c0-1.4-.4-1.9-2-1.9l.7-3.4h12.8c6.2,0,9.9,2.6,9.9,7.3,0,3.1-1.7,5.2-4.8,6.4,3.1.8,3.9,3.8,4.3,5.5s.8,2.8,2.7,2.8h.6Zm-12.9-21.4h-3.8v7.2h3.6c2.8,0,4.2-1.4,4.2-3.6S225.6,111.1,222.9,111.1Z" fill="#00683f"/><path d="M258,132.5H238.5l-.7-3.3c1.6,0,2-.6,2-2V112.5c0-1.5-.4-1.9-2-1.9l.7-3.4h18.7v6.1l-2.6.5c-.3-2-.9-2.4-3.7-2.4h-4.3v6.1h3.9c1.7,0,2.3-.3,2.3-1.6l2.7.6v6.1l-2.7.7c0-1.4-.6-1.7-2.3-1.7h-3.9v6.7h6c2.6,0,3.1-.8,3.4-2.6l2.8.6Z" fill="#00683f"/><path d="M270.9,132.9a21,21,0,0,1-10.1-2.5l1.3-5.4h2.3c.9,2.9,3.8,3.9,6.4,3.9s4.1-.9,4.1-3.1-1.4-2.6-5.5-3.4-8.4-2.6-8.4-7.7,4.4-7.9,10.1-7.9a21,21,0,0,1,9.3,2l-1.3,5.2h-2.3c-1-2.5-3.6-3.3-5.6-3.3s-3.9,1-3.9,2.7,1.5,2.4,4.5,2.9c5.6,1,9.7,2.7,9.7,8.4S276.5,132.9,270.9,132.9Z" fill="#00683f"/><path d="M114.5,154.2a1.7,1.7,0,0,0-.6-1.4,7.4,7.4,0,0,0-2.4-.8,11.1,11.1,0,0,1-2.6-.9,4,4,0,0,1-1.4-1.1,3.1,3.1,0,0,1-.5-1.7,3.3,3.3,0,0,1,1.4-2.6,5,5,0,0,1,3.3-1.1,5.4,5.4,0,0,1,3.5,1.1,3.7,3.7,0,0,1,1.4,2.9h-2.2a2.3,2.3,0,0,0-.8-1.6,2.9,2.9,0,0,0-1.9-.6,3,3,0,0,0-1.8.5,1.6,1.6,0,0,0-.7,1.4,1.1,1.1,0,0,0,.6,1.1,5.9,5.9,0,0,0,2.3.8,11.1,11.1,0,0,1,2.6.9,3.2,3.2,0,0,1,.6,5.6,5.6,5.6,0,0,1-3.5,1.1,6,6,0,0,1-2.7-.6,3.4,3.4,0,0,1-1.8-1.5,3.1,3.1,0,0,1-.7-2.1h2.2a2.3,2.3,0,0,0,.8,1.8,3.8,3.8,0,0,0,2.2.6,3.9,3.9,0,0,0,2-.5A1.5,1.5,0,0,0,114.5,154.2Z" fill="#00683f"/><path d="M124.6,156a2.9,2.9,0,0,0,2-.7,2.7,2.7,0,0,0,1-1.8h2a3.8,3.8,0,0,1-.7,2.1,4.9,4.9,0,0,1-1.9,1.6,4.8,4.8,0,0,1-2.4.6,5.1,5.1,0,0,1-4.1-1.8,6.8,6.8,0,0,1-1.6-4.7v-.4a7.9,7.9,0,0,1,.7-3.2,5,5,0,0,1,2-2.3,5.6,5.6,0,0,1,3-.8,4.8,4.8,0,0,1,3.5,1.3,4.1,4.1,0,0,1,1.5,3.3h-2a3,3,0,0,0-1-2,2.8,2.8,0,0,0-2-.8,3.1,3.1,0,0,0-2.6,1.2,5.5,5.5,0,0,0-.9,3.4v.4a5.5,5.5,0,0,0,.9,3.4A3.1,3.1,0,0,0,124.6,156Z" fill="#00683f"/><path d="M134.2,146.4a4.6,4.6,0,0,1,3.8-1.8c2.7,0,4,1.5,4,4.6v8.3h-2.1v-8.4a2.6,2.6,0,0,0-.7-2,2.5,2.5,0,0,0-1.9-.6,2.7,2.7,0,0,0-1.8.5,3.7,3.7,0,0,0-1.3,1.5v9h-2.1v-18h2.1Z" fill="#00683f"/><path d="M144.7,151.1a8.9,8.9,0,0,1,.7-3.4,5.5,5.5,0,0,1,5.1-3.1,5.4,5.4,0,0,1,4.2,1.8,7.3,7.3,0,0,1,1.6,4.8h0a7.4,7.4,0,0,1-.8,3.4,4.7,4.7,0,0,1-2,2.2,5.3,5.3,0,0,1-3,.9,5.4,5.4,0,0,1-4.2-1.8,6.8,6.8,0,0,1-1.6-4.8Zm2.2.2a5.1,5.1,0,0,0,1,3.4,3.3,3.3,0,0,0,5.2,0,5.7,5.7,0,0,0,1-3.6,5.3,5.3,0,0,0-1-3.4,3,3,0,0,0-2.6-1.3,2.9,2.9,0,0,0-2.6,1.3A5.3,5.3,0,0,0,146.9,151.3Z" fill="#00683f"/><path d="M161.3,157.5h-2.1v-18h2.1Z" fill="#00683f"/><path d="M172.6,157.5a6.3,6.3,0,0,1-.3-1.3,5,5,0,0,1-3.6,1.6,4.7,4.7,0,0,1-3.1-1.1,3.4,3.4,0,0,1-1.2-2.7,3.7,3.7,0,0,1,1.5-3.1,7.6,7.6,0,0,1,4.3-1.1h2.1v-.9a2.5,2.5,0,0,0-.7-1.9,2.8,2.8,0,0,0-2-.6,2.9,2.9,0,0,0-1.9.6,1.4,1.4,0,0,0-.8,1.4h-2.2a2.8,2.8,0,0,1,.7-1.9,4.4,4.4,0,0,1,1.8-1.4,7,7,0,0,1,2.5-.5,5.4,5.4,0,0,1,3.5,1.1,4.4,4.4,0,0,1,1.3,3v5.9a6.7,6.7,0,0,0,.4,2.7v.2Zm-3.6-1.6a4.6,4.6,0,0,0,2-.5,4.3,4.3,0,0,0,1.3-1.4v-2.6h-1.7c-2.7,0-4,.8-4,2.3a1.9,1.9,0,0,0,.7,1.6A2.4,2.4,0,0,0,169,155.9Z" fill="#00683f"/><path d="M184,146.8h-1.1a2.9,2.9,0,0,0-2.9,1.8v9h-2.1V144.9H180v1.4a3.4,3.4,0,0,1,3-1.7l1,.2Z" fill="#00683f"/><path d="M193.4,154.2a1.7,1.7,0,0,0-.7-1.4,5.9,5.9,0,0,0-2.3-.8,9.7,9.7,0,0,1-2.6-.9,4.5,4.5,0,0,1-1.5-1.1,3.1,3.1,0,0,1-.4-1.7,3.2,3.2,0,0,1,1.3-2.6,5.3,5.3,0,0,1,3.4-1.1,5.6,5.6,0,0,1,3.5,1.1,3.6,3.6,0,0,1,1.3,2.9h-2.2a2.1,2.1,0,0,0-.7-1.6,3.1,3.1,0,0,0-1.9-.6,3.6,3.6,0,0,0-1.9.5,1.9,1.9,0,0,0-.7,1.4,1.2,1.2,0,0,0,.7,1.1,5.3,5.3,0,0,0,2.2.8,9.7,9.7,0,0,1,2.6.9,3.1,3.1,0,0,1,1.5,1.2,2.5,2.5,0,0,1,.5,1.7,3,3,0,0,1-1.3,2.7,5.7,5.7,0,0,1-3.6,1.1,6,6,0,0,1-2.7-.6,4.3,4.3,0,0,1-1.8-1.5,3.8,3.8,0,0,1-.7-2.1h2.2a2.4,2.4,0,0,0,.9,1.8,3.3,3.3,0,0,0,2.1.6,3.7,3.7,0,0,0,2-.5A1.6,1.6,0,0,0,193.4,154.2Z" fill="#00683f"/><path d="M200.5,146.4a4.6,4.6,0,0,1,3.8-1.8c2.6,0,4,1.5,4,4.6v8.3h-2.1v-8.4a3.6,3.6,0,0,0-.7-2,2.5,2.5,0,0,0-1.9-.6,2.7,2.7,0,0,0-1.8.5,3.7,3.7,0,0,0-1.3,1.5v9h-2.2v-18h2.2Z" fill="#00683f"/><path d="M211.6,141.5a1.2,1.2,0,0,1,.3-.9,1.3,1.3,0,0,1,1-.4,1.3,1.3,0,0,1,.9.4,1.2,1.2,0,0,1,.3.9,1.6,1.6,0,0,1-.3.9,1.2,1.2,0,0,1-.9.3,1.3,1.3,0,0,1-1-.3A1.6,1.6,0,0,1,211.6,141.5Zm2.3,16h-2.1V144.9h2.1Z" fill="#00683f"/><path d="M228.1,151.3a7.5,7.5,0,0,1-1.3,4.7,4.3,4.3,0,0,1-3.6,1.8,4.5,4.5,0,0,1-3.6-1.5v6.1h-2.2V144.9h2v1.4a4.5,4.5,0,0,1,3.7-1.7,4.5,4.5,0,0,1,3.6,1.7,7.8,7.8,0,0,1,1.3,4.8Zm-2.2-.2a5.7,5.7,0,0,0-.9-3.4,2.9,2.9,0,0,0-2.5-1.2,3,3,0,0,0-2.9,1.7v6.1a3.1,3.1,0,0,0,2.9,1.7,2.9,2.9,0,0,0,2.5-1.2A6.5,6.5,0,0,0,225.9,151.1Z" fill="#00683f"/><path d="M237.9,157.5v-11h-2v-1.6h2v-1.3a4,4,0,0,1,1.1-3.2,4.1,4.1,0,0,1,3-1.1l1.5.2v1.7h-1.2a2.1,2.1,0,0,0-1.6.6,2.6,2.6,0,0,0-.6,1.8v1.4h2.7v1.6H240v11Z" fill="#00683f"/><path d="M253,156.3a4.8,4.8,0,0,1-3.8,1.5,3.8,3.8,0,0,1-3-1.2,4.8,4.8,0,0,1-1.1-3.5v-8.2h2.2V153c0,2,.7,2.9,2.3,2.9s2.8-.6,3.3-1.8v-9.2h2.2v12.6H253Z" fill="#00683f"/><path d="M260.4,144.9v1.5a4.6,4.6,0,0,1,3.8-1.8c2.7,0,4,1.5,4,4.6v8.3h-2.1v-8.4a3,3,0,0,0-.7-2,2.5,2.5,0,0,0-1.9-.6,2.7,2.7,0,0,0-1.8.5,3.7,3.7,0,0,0-1.3,1.5v9h-2.1V144.9Z" fill="#00683f"/><path d="M271.1,151.1a6.9,6.9,0,0,1,1.4-4.7,4.3,4.3,0,0,1,3.6-1.8,4.4,4.4,0,0,1,3.5,1.5v-6.6h2.2v18h-2v-1.3a4.7,4.7,0,0,1-3.6,1.6,4.3,4.3,0,0,1-3.6-1.8,7.1,7.1,0,0,1-1.4-4.7Zm2.1.2a5.5,5.5,0,0,0,.9,3.4,2.9,2.9,0,0,0,2.5,1.2,3.1,3.1,0,0,0,3-1.8v-5.8a3.1,3.1,0,0,0-3-1.8,3,3,0,0,0-2.5,1.2A6,6,0,0,0,273.2,151.3Z" fill="#00683f"/><path d="M122.9,98.9H108.1l-.9-3.9c2,0,2.4-.7,2.4-2.3V75c0-1.7-.4-2.3-2.4-2.3l.9-3.9h13.8c7.5,0,11.7,2.7,11.7,7.9a7.1,7.1,0,0,1-4.3,6,7.7,7.7,0,0,1,5.7,7.6C135,95.9,130.3,98.9,122.9,98.9Zm-5.2-18.1h3.7c3,0,4.3-1.5,4.3-3.7s-1.2-3.5-4.3-3.5h-3.7Zm0,4.8v8.7h4.4c3.2,0,4.8-1.7,4.8-4.3s-1.7-4.4-5.1-4.4Z" fill="#00683f"/><path d="M168.5,98.9h-9c-4.4-4.2-1.2-12-7.4-12h-3.6v5.8c0,1.6.4,2.3,2.4,2.3l-.9,3.9H138.9L138,95c2,0,2.4-.7,2.4-2.3V75c0-1.6-.5-2.3-2.4-2.3l.9-3.9h15.2c7.4,0,11.8,3,11.8,8.6,0,3.7-2,6.3-5.7,7.7,3.7,1,4.7,4.5,5.1,6.6s1,3.3,3.3,3.3h.7ZM153,73.4h-4.5V82h4.4c3.3,0,5-1.6,5-4.3S156.3,73.4,153,73.4Z" fill="#00683f"/><path d="M183.3,98.9H172l-.9-3.9c2,0,2.5-.7,2.5-2.3V75c0-1.7-.5-2.3-2.5-2.3l.9-3.9h11.3l.8,3.9c-2,0-2.4.6-2.4,2.3V92.7c0,1.6.4,2.3,2.4,2.3Z" fill="#00683f"/><path d="M218.1,87c-2,0-2.5.7-2.5,2.3v2.3c0,1.6.4,2,1.4,2l-.8,3.8c-4.3.3-5.3,2-11.9,2-8.9,0-16.4-4.3-16.4-15.5s6.7-15.6,16.4-15.6A22.3,22.3,0,0,1,216,71.6l-1.7,6.7h-2.7c-.9-3.2-3.5-4.4-6.6-4.4-5.6,0-8.5,3.1-8.5,10s2.5,10,8,10a9.3,9.3,0,0,0,3.9-.9V89.3c0-1.6-.4-2.3-2.5-2.3h-.6l.9-3.9h11.6l.9,3.9Z" fill="#00683f"/><path d="M252.6,98.9H241.5l-.9-3.9c2,0,2.4-.7,2.4-2.3V85.9H231.6v6.8c0,1.6.4,2.3,2.3,2.3l-.8,3.9H221.9L221,95c2,0,2.4-.7,2.4-2.3V75c0-1.7-.4-2.3-2.4-2.3l.9-3.9h11.2l.8,3.9c-1.9,0-2.3.6-2.3,2.3v5.5H243V75c0-1.7-.4-2.3-2.4-2.3l.9-3.9h11.1l.9,3.9c-2,0-2.4.6-2.4,2.3V92.7c0,1.6.4,2.3,2.4,2.3Z" fill="#00683f"/><path d="M280.5,76.9c-.3-2.1-.9-3-4.1-3h-2.9V92.7c0,1.6.3,2.3,2.3,2.3l-.8,3.9H263.8l-.9-3.9c2,0,2.4-.7,2.4-2.3V73.9h-2.9c-3.2,0-3.8.9-4.1,3l-3.3-.6.9-7.5h27l.8,7.5Z" fill="#00683f"/><path d="M141.7,58.3,93.9,8.9,29.5,77.5s-.7,93,0,95.2L97,173.8" fill="none" stroke="#00683f" stroke-miterlimit="10"/><polyline points="98.2 173.7 161.2 172.9 161 166.6" fill="none" stroke="#00683f" stroke-miterlimit="10"/><path d="M96.6,26.4c.6,2.7-.5,18.4-10.4,22.6,0,0,7.4-14.8,9.5-22.6A.5.5,0,0,1,96.6,26.4Z" fill="#00683f" stroke="#00683f" stroke-miterlimit="10" stroke-width="1.05"/><path d="M88.4,50.8c-4.7,8.3-13.6,20.2-24.8,18-.2,0-.2-.5.1-.5,3.2-.9,11.6-4.3,23.5-18.5C88,48.8,89,49.7,88.4,50.8Z" fill="#00683f" stroke="#00683f" stroke-miterlimit="10" stroke-width="1.43"/><path d="M74.6,24.3,56.1,19.1H56c-.2,0-11-2.1-18.4-6.2-.6-.4-1.4.5-.9,1.1,2.7,4.1,7.1,11.3,9.4,17.7,0,0,9.3,27.7,40.7,19.5a.7.7,0,0,0,.6-.7C87.8,47,89,28.3,74.6,24.3Z" fill="#94c948"/><path d="M145.3,33.1a76.8,76.8,0,0,1-17.7-3.5S101.9,19.4,86.8,50a1.2,1.2,0,0,0,.2,1.3c2.5,2.9,14.7,15.1,26.9,6.1l16-11.7h0c.4-.3,8.2-7,15.7-10.5A1.1,1.1,0,0,0,145.3,33.1Z" fill="#94c948"/><path d="M98.4,178.6s-17.7-34.1-18-65.1,7.9-65.6,6.2-60a188.8,188.8,0,0,0-9.5,63.8c1,34.8,15.4,51.8,17.1,63.8Z" fill="#00683f" stroke="#00683f" stroke-linecap="round" stroke-linejoin="round" stroke-width="1.41"/><path d="M51.1,25.5S83.2,37,79.8,47.8C79.8,47.8,76,36.7,51.1,25.5Z" fill="#00683f" stroke="#00683f" stroke-linecap="round" stroke-linejoin="round" stroke-width="0.79"/><path d="M128.9,37S99.8,38.6,97.7,51.6C97.7,51.6,104.7,39.7,128.9,37Z" fill="#00683f" stroke="#00683f" stroke-linecap="round" stroke-linejoin="round" stroke-width="0.72"/></svg>