<svg xmlns="http://www.w3.org/2000/svg" width="327.6" height="190" viewBox="0 0 327.6 190"><path fill="#00683f" d="M124 113.8c-.3-2-.8-2.4-3.6-2.4h-4.7v6.1h4.5c1.6 0 2.2-.3 2.2-1.6l2.7.6v6.1l-2.7.7c0-1.4-.6-1.7-2.2-1.7h-4.5v5.6c0 1.4.4 2 2 2l-.7 3.3h-9.3l-.8-3.3c1.7 0 2-.6 2-2v-14.7c0-1.5-.3-1.9-2-1.9l.8-3.4h18.9v6.1zm29.5-1.3v11.7c0 5.3-4.4 8.7-11.4 8.7s-11.4-3.4-11.4-8.7v-11.7c0-1.5-.3-1.9-2-1.9l.8-3.4h9.6l.7 3.4c-1.6 0-2 .4-2 1.9v11.7c0 2.4 1.5 3.9 4.6 3.9s4.8-1.5 4.8-3.9v-11.7c0-1.5-.4-1.9-2-1.9l.7-3.4h8.8l.8 3.4c-1.7 0-2 .4-2 1.9zm24.1 1.5c-.3-1.7-.8-2.5-3.5-2.5h-2.4v15.7c0 1.4.3 2 1.9 2l-.7 3.3h-9.3l-.8-3.3c1.7 0 2.1-.6 2.1-2v-15.7h-2.5c-2.7 0-3.2.8-3.4 2.5l-2.8-.5.7-6.3h22.6l.8 6.3zm28.3-1.5v11.7c0 5.3-4.3 8.7-11.3 8.7s-11.4-3.4-11.4-8.7v-11.7c0-1.5-.3-1.9-2-1.9l.8-3.4h9.6l.7 3.4c-1.7 0-2 .4-2 1.9v11.7c0 2.4 1.5 3.9 4.6 3.9s4.8-1.5 4.8-3.9v-11.7c0-1.5-.4-1.9-2-1.9l.7-3.4h8.8l.7 3.4c-1.6 0-2 .4-2 1.9zm29.9 20h-7.5c-3.7-3.6-1-10.1-6.2-10.1h-3v4.8c0 1.4.3 2 2 2l-.7 3.3H211l-.7-3.3c1.7 0 2-.6 2-2v-14.7c0-1.4-.4-1.9-2-1.9l.7-3.4h12.8c6.2 0 9.9 2.6 9.9 7.3 0 3.1-1.7 5.2-4.8 6.4 3.1.8 3.9 3.8 4.3 5.5s.8 2.8 2.7 2.8h.6zm-12.9-21.4h-3.8v7.2h3.6c2.8 0 4.2-1.4 4.2-3.6s-1.3-3.6-4-3.6zm35.1 21.4h-19.5l-.7-3.3c1.6 0 2-.6 2-2v-14.7c0-1.5-.4-1.9-2-1.9l.7-3.4h18.7v6.1l-2.6.5c-.3-2-.9-2.4-3.7-2.4h-4.3v6.1h3.9c1.7 0 2.3-.3 2.3-1.6l2.7.6v6.1l-2.7.7c0-1.4-.6-1.7-2.3-1.7h-3.9v6.7h6c2.6 0 3.1-.8 3.4-2.6l2.8.6zm12.9.4a21 21 0 0 1-10.1-2.5l1.3-5.4h2.3c.9 2.9 3.8 3.9 6.4 3.9s4.1-.9 4.1-3.1-1.4-2.6-5.5-3.4-8.4-2.6-8.4-7.7 4.4-7.9 10.1-7.9a21 21 0 0 1 9.3 2l-1.3 5.2h-2.3c-1-2.5-3.6-3.3-5.6-3.3s-3.9 1-3.9 2.7 1.5 2.4 4.5 2.9c5.6 1 9.7 2.7 9.7 8.4s-5 8.2-10.6 8.2zm-156.4 21.3a1.7 1.7 0 0 0-.6-1.4 7.4 7.4 0 0 0-2.4-.8 11.1 11.1 0 0 1-2.6-.9 4 4 0 0 1-1.4-1.1 3.1 3.1 0 0 1-.5-1.7 3.3 3.3 0 0 1 1.4-2.6 5 5 0 0 1 3.3-1.1 5.4 5.4 0 0 1 3.5 1.1 3.7 3.7 0 0 1 1.4 2.9h-2.2a2.3 2.3 0 0 0-.8-1.6 2.9 2.9 0 0 0-1.9-.6 3 3 0 0 0-1.8.5 1.6 1.6 0 0 0-.7 1.4 1.1 1.1 0 0 0 .6 1.1 5.9 5.9 0 0 0 2.3.8 11.1 11.1 0 0 1 2.6.9 3.2 3.2 0 0 1 .6 5.6 5.6 5.6 0 0 1-3.5 1.1 6 6 0 0 1-2.7-.6 3.4 3.4 0 0 1-1.8-1.5 3.1 3.1 0 0 1-.7-2.1h2.2a2.3 2.3 0 0 0 .8 1.8 3.8 3.8 0 0 0 2.2.6 3.9 3.9 0 0 0 2-.5 1.5 1.5 0 0 0 .7-1.3zm10.1 1.8a2.9 2.9 0 0 0 2-.7 2.7 2.7 0 0 0 1-1.8h2a3.8 3.8 0 0 1-.7 2.1 4.9 4.9 0 0 1-1.9 1.6 4.8 4.8 0 0 1-2.4.6 5.1 5.1 0 0 1-4.1-1.8 6.8 6.8 0 0 1-1.6-4.7v-.4a7.9 7.9 0 0 1 .7-3.2 5 5 0 0 1 2-2.3 5.6 5.6 0 0 1 3-.8 4.8 4.8 0 0 1 3.5 1.3 4.1 4.1 0 0 1 1.5 3.3h-2a3 3 0 0 0-1-2 2.8 2.8 0 0 0-2-.8 3.1 3.1 0 0 0-2.6 1.2 5.5 5.5 0 0 0-.9 3.4v.4a5.5 5.5 0 0 0 .9 3.4 3.1 3.1 0 0 0 2.6 1.2zm9.6-9.6a4.6 4.6 0 0 1 3.8-1.8c2.7 0 4 1.5 4 4.6v8.3h-2.1v-8.4a2.6 2.6 0 0 0-.7-2 2.5 2.5 0 0 0-1.9-.6 2.7 2.7 0 0 0-1.8.5 3.7 3.7 0 0 0-1.3 1.5v9h-2.1v-18h2.1zm10.5 4.7a8.9 8.9 0 0 1 .7-3.4 5.5 5.5 0 0 1 5.1-3.1 5.4 5.4 0 0 1 4.2 1.8 7.3 7.3 0 0 1 1.6 4.8 7.4 7.4 0 0 1-.8 3.4 4.7 4.7 0 0 1-2 2.2 5.3 5.3 0 0 1-3 .9 5.4 5.4 0 0 1-4.2-1.8 6.8 6.8 0 0 1-1.6-4.8zm2.2.2a5.1 5.1 0 0 0 1 3.4 3.3 3.3 0 0 0 5.2 0 5.7 5.7 0 0 0 1-3.6 5.3 5.3 0 0 0-1-3.4 3 3 0 0 0-2.6-1.3 2.9 2.9 0 0 0-2.6 1.3 5.3 5.3 0 0 0-1 3.6zm14.4 6.2h-2.1v-18h2.1zm11.3 0a6.3 6.3 0 0 1-.3-1.3 5 5 0 0 1-3.6 1.6 4.7 4.7 0 0 1-3.1-1.1 3.4 3.4 0 0 1-1.2-2.7 3.7 3.7 0 0 1 1.5-3.1 7.6 7.6 0 0 1 4.3-1.1h2.1v-.9a2.5 2.5 0 0 0-.7-1.9 2.8 2.8 0 0 0-2-.6 2.9 2.9 0 0 0-1.9.6 1.4 1.4 0 0 0-.8 1.4h-2.2a2.8 2.8 0 0 1 .7-1.9 4.4 4.4 0 0 1 1.8-1.4 7 7 0 0 1 2.5-.5 5.4 5.4 0 0 1 3.5 1.1 4.4 4.4 0 0 1 1.3 3v5.9a6.7 6.7 0 0 0 .4 2.7v.2zm-3.6-1.6a4.6 4.6 0 0 0 2-.5 4.3 4.3 0 0 0 1.3-1.4v-2.6h-1.7c-2.7 0-4 .8-4 2.3a1.9 1.9 0 0 0 .7 1.6 2.4 2.4 0 0 0 1.7.6zm15-9.1h-1.1a2.9 2.9 0 0 0-2.9 1.8v9h-2.1v-12.7h2.1v1.4a3.4 3.4 0 0 1 3-1.7l1 .2zm9.4 7.4a1.7 1.7 0 0 0-.7-1.4 5.9 5.9 0 0 0-2.3-.8 9.7 9.7 0 0 1-2.6-.9 4.5 4.5 0 0 1-1.5-1.1 3.1 3.1 0 0 1-.4-1.7 3.2 3.2 0 0 1 1.3-2.6 5.3 5.3 0 0 1 3.4-1.1 5.6 5.6 0 0 1 3.5 1.1 3.6 3.6 0 0 1 1.3 2.9h-2.2a2.1 2.1 0 0 0-.7-1.6 3.1 3.1 0 0 0-1.9-.6 3.6 3.6 0 0 0-1.9.5 1.9 1.9 0 0 0-.7 1.4 1.2 1.2 0 0 0 .7 1.1 5.3 5.3 0 0 0 2.2.8 9.7 9.7 0 0 1 2.6.9 3.1 3.1 0 0 1 1.5 1.2 2.5 2.5 0 0 1 .5 1.7 3 3 0 0 1-1.3 2.7 5.7 5.7 0 0 1-3.6 1.1 6 6 0 0 1-2.7-.6 4.3 4.3 0 0 1-1.8-1.5 3.8 3.8 0 0 1-.7-2.1h2.2a2.4 2.4 0 0 0 .9 1.8 3.3 3.3 0 0 0 2.1.6 3.7 3.7 0 0 0 2-.5 1.6 1.6 0 0 0 .8-1.3zm7.1-7.8a4.6 4.6 0 0 1 3.8-1.8c2.6 0 4 1.5 4 4.6v8.3h-2.1v-8.4a3.6 3.6 0 0 0-.7-2 2.5 2.5 0 0 0-1.9-.6 2.7 2.7 0 0 0-1.8.5 3.7 3.7 0 0 0-1.3 1.5v9h-2.2v-18h2.2zm11.1-4.9a1.2 1.2 0 0 1 .3-.9 1.3 1.3 0 0 1 1-.4 1.3 1.3 0 0 1 .9.4 1.2 1.2 0 0 1 .3.9 1.6 1.6 0 0 1-.3.9 1.2 1.2 0 0 1-.9.3 1.3 1.3 0 0 1-1-.3 1.6 1.6 0 0 1-.3-.9zm2.3 16h-2.1v-12.6h2.1zm14.2-6.2a7.5 7.5 0 0 1-1.3 4.7 4.3 4.3 0 0 1-3.6 1.8 4.5 4.5 0 0 1-3.6-1.5v6.1h-2.2v-17.5h2v1.4a4.5 4.5 0 0 1 3.7-1.7 4.5 4.5 0 0 1 3.6 1.7 7.8 7.8 0 0 1 1.3 4.8zm-2.2-.2a5.7 5.7 0 0 0-.9-3.4 2.9 2.9 0 0 0-2.5-1.2 3 3 0 0 0-2.9 1.7v6.1a3.1 3.1 0 0 0 2.9 1.7 2.9 2.9 0 0 0 2.5-1.2 6.5 6.5 0 0 0 .9-3.7zm12 6.4v-11h-2v-1.6h2v-1.3a4 4 0 0 1 1.1-3.2 4.1 4.1 0 0 1 3-1.1l1.5.2v1.7h-1.2a2.1 2.1 0 0 0-1.6.6 2.6 2.6 0 0 0-.6 1.8v1.4h2.7v1.6H240v11zm15.1-1.2a4.8 4.8 0 0 1-3.8 1.5 3.8 3.8 0 0 1-3-1.2 4.8 4.8 0 0 1-1.1-3.5v-8.2h2.2v8.1c0 2 .7 2.9 2.3 2.9s2.8-.6 3.3-1.8v-9.2h2.2v12.6H253zm7.4-11.4v1.5a4.6 4.6 0 0 1 3.8-1.8c2.7 0 4 1.5 4 4.6v8.3h-2.1v-8.4a3 3 0 0 0-.7-2 2.5 2.5 0 0 0-1.9-.6 2.7 2.7 0 0 0-1.8.5 3.7 3.7 0 0 0-1.3 1.5v9h-2.1v-12.6zm10.7 6.2a6.9 6.9 0 0 1 1.4-4.7 4.3 4.3 0 0 1 3.6-1.8 4.4 4.4 0 0 1 3.5 1.5v-6.6h2.2v18h-2v-1.3a4.7 4.7 0 0 1-3.6 1.6 4.3 4.3 0 0 1-3.6-1.8 7.1 7.1 0 0 1-1.4-4.7zm2.1.2a5.5 5.5 0 0 0 .9 3.4 2.9 2.9 0 0 0 2.5 1.2 3.1 3.1 0 0 0 3-1.8v-5.8a3.1 3.1 0 0 0-3-1.8 3 3 0 0 0-2.5 1.2 6 6 0 0 0-.9 3.6zM122.9 98.9h-14.8l-.9-3.9c2 0 2.4-.7 2.4-2.3V75c0-1.7-.4-2.3-2.4-2.3l.9-3.9h13.8c7.5 0 11.7 2.7 11.7 7.9a7.1 7.1 0 0 1-4.3 6 7.7 7.7 0 0 1 5.7 7.6c0 5.6-4.7 8.6-12.1 8.6zm-5.2-18.1h3.7c3 0 4.3-1.5 4.3-3.7s-1.2-3.5-4.3-3.5h-3.7zm0 4.8v8.7h4.4c3.2 0 4.8-1.7 4.8-4.3s-1.7-4.4-5.1-4.4zm50.8 13.3h-9c-4.4-4.2-1.2-12-7.4-12h-3.6v5.8c0 1.6.4 2.3 2.4 2.3l-.9 3.9h-11.1L138 95c2 0 2.4-.7 2.4-2.3V75c0-1.6-.5-2.3-2.4-2.3l.9-3.9h15.2c7.4 0 11.8 3 11.8 8.6 0 3.7-2 6.3-5.7 7.7 3.7 1 4.7 4.5 5.1 6.6s1 3.3 3.3 3.3h.7zM153 73.4h-4.5V82h4.4c3.3 0 5-1.6 5-4.3s-1.6-4.3-4.9-4.3zm30.3 25.5H172l-.9-3.9c2 0 2.5-.7 2.5-2.3V75c0-1.7-.5-2.3-2.5-2.3l.9-3.9h11.3l.8 3.9c-2 0-2.4.6-2.4 2.3v17.7c0 1.6.4 2.3 2.4 2.3zM218.1 87c-2 0-2.5.7-2.5 2.3v2.3c0 1.6.4 2 1.4 2l-.8 3.8c-4.3.3-5.3 2-11.9 2-8.9 0-16.4-4.3-16.4-15.5s6.7-15.6 16.4-15.6a22.3 22.3 0 0 1 11.7 3.3l-1.7 6.7h-2.7c-.9-3.2-3.5-4.4-6.6-4.4-5.6 0-8.5 3.1-8.5 10s2.5 10 8 10a9.3 9.3 0 0 0 3.9-.9v-3.7c0-1.6-.4-2.3-2.5-2.3h-.6l.9-3.9h11.6l.9 3.9zm34.5 11.9h-11.1l-.9-3.9c2 0 2.4-.7 2.4-2.3v-6.8h-11.4v6.8c0 1.6.4 2.3 2.3 2.3l-.8 3.9h-11.2L221 95c2 0 2.4-.7 2.4-2.3V75c0-1.7-.4-2.3-2.4-2.3l.9-3.9h11.2l.8 3.9c-1.9 0-2.3.6-2.3 2.3v5.5H243V75c0-1.7-.4-2.3-2.4-2.3l.9-3.9h11.1l.9 3.9c-2 0-2.4.6-2.4 2.3v17.7c0 1.6.4 2.3 2.4 2.3zm27.9-22c-.3-2.1-.9-3-4.1-3h-2.9v18.8c0 1.6.3 2.3 2.3 2.3l-.8 3.9h-11.2l-.9-3.9c2 0 2.4-.7 2.4-2.3V73.9h-2.9c-3.2 0-3.8.9-4.1 3l-3.3-.6.9-7.5h27l.8 7.5z"/><path fill="none" stroke="#00683f" stroke-miterlimit="10" d="M141.7 58.3L93.9 8.9 29.5 77.5s-.7 93 0 95.2l67.5 1.1m1.2-.1l63-.8-.2-6.3"/><path fill="#00683f" stroke="#00683f" stroke-miterlimit="10" stroke-width="1.05" d="M96.6 26.4c.6 2.7-.5 18.4-10.4 22.6 0 0 7.4-14.8 9.5-22.6a.5.5 0 0 1 .9 0z"/><path fill="#00683f" stroke="#00683f" stroke-miterlimit="10" stroke-width="1.43" d="M88.4 50.8c-4.7 8.3-13.6 20.2-24.8 18-.2 0-.2-.5.1-.5 3.2-.9 11.6-4.3 23.5-18.5.8-1 1.8-.1 1.2 1z"/><path fill="#94c948" d="M74.6 24.3l-18.5-5.2H56c-.2 0-11-2.1-18.4-6.2-.6-.4-1.4.5-.9 1.1 2.7 4.1 7.1 11.3 9.4 17.7 0 0 9.3 27.7 40.7 19.5a.7.7 0 0 0 .6-.7c.4-3.5 1.6-22.2-12.8-26.2z"/><path fill="#94c948" d="M145.3 33.1a76.8 76.8 0 0 1-17.7-3.5S101.9 19.4 86.8 50a1.2 1.2 0 0 0 .2 1.3c2.5 2.9 14.7 15.1 26.9 6.1l16-11.7c.4-.3 8.2-7 15.7-10.5a1.1 1.1 0 0 0-.3-2.1z"/><path fill="#00683f" stroke="#00683f" stroke-linecap="round" stroke-linejoin="round" stroke-width="1.41" d="M98.4 178.6s-17.7-34.1-18-65.1 7.9-65.6 6.2-60a188.8 188.8 0 0 0-9.5 63.8c1 34.8 15.4 51.8 17.1 63.8z"/><path fill="#00683f" stroke="#00683f" stroke-linecap="round" stroke-linejoin="round" stroke-width=".79" d="M51.1 25.5S83.2 37 79.8 47.8c0 0-3.8-11.1-28.7-22.3z"/><path fill="#00683f" stroke="#00683f" stroke-linecap="round" stroke-linejoin="round" stroke-width=".72" d="M128.9 37s-29.1 1.6-31.2 14.6c0 0 7-11.9 31.2-14.6z"/></svg>